<?xml version="1.0" encoding="iso-8859-1"?>
<!-- Generator: Adobe Illustrator 19.0.0, SVG Export Plug-In . SVG Version: 6.00 Build 0)  -->
<svg version="1.1" id="Layer_1" xmlns="http://www.w3.org/2000/svg" xmlns:xlink="http://www.w3.org/1999/xlink" x="0px" y="0px"
	 viewBox="0 0 469.333 469.333" style="enable-background:new 0 0 469.333 469.333;" xml:space="preserve">
<path style="fill:#6EA0E1;" d="M416,64H53.333C41.547,64,32,73.547,32,85.333v21.333h405.333V85.333
	C437.333,73.547,427.787,64,416,64z"/>
<path style="fill:#4A88DA;" d="M458.667,352h-224V106.667h202.667c11.787,0,21.333,9.547,21.333,21.333V352z"/>
<path d="M464,357.333H229.333v-256h208C452.032,101.333,464,113.291,464,128V357.333z M240,346.667h213.333V128
	c0-8.821-7.179-16-16-16H240V346.667z"/>
<rect x="10.667" y="277.333" style="fill:#F5B945;" width="224" height="74.667"/>
<path style="fill:#4A88DA;" d="M234.667,277.333h-224V128c0-11.787,9.547-21.333,21.333-21.333h202.667V277.333z"/>
<path style="fill:#6EA0E1;" d="M437.333,458.667H32c-11.787,0-21.333-9.547-21.333-21.333V352h448v85.333
	C458.667,449.12,449.12,458.667,437.333,458.667z"/>
<circle style="fill:#FFFFFF;" cx="394.667" cy="405.333" r="21.333"/>
<path d="M394.667,437.333c-17.643,0-32-14.357-32-32s14.357-32,32-32c17.643,0,32,14.357,32,32S412.309,437.333,394.667,437.333z
	 M394.667,394.667c-5.877,0-10.667,4.779-10.667,10.667S388.789,416,394.667,416s10.667-4.779,10.667-10.667
	S400.544,394.667,394.667,394.667z"/>
<path d="M330.667,416H53.333c-5.888,0-10.667-4.768-10.667-10.667s4.779-10.667,10.667-10.667h277.333
	c5.888,0,10.667,4.768,10.667,10.667S336.555,416,330.667,416z"/>
<path style="fill:#FFFFFF;" d="M181.333,277.333H64V170.667c0-11.787,9.547-21.333,21.333-21.333H160
	c11.787,0,21.333,9.547,21.333,21.333V277.333z"/>
<path d="M181.333,288H64c-5.888,0-10.667-4.768-10.667-10.667V170.667c0-17.643,14.357-32,32-32H160c17.643,0,32,14.357,32,32
	v106.667C192,283.232,187.221,288,181.333,288z M74.667,266.667h96v-96c0-5.888-4.789-10.667-10.667-10.667H85.333
	c-5.877,0-10.667,4.779-10.667,10.667V266.667z"/>
<g>
	<path style="fill:#F5B945;" d="M330.667,170.667c0,11.787-9.547,21.333-21.333,21.333H288c-11.787,0-21.333-9.547-21.333-21.333
		l0,0c0-11.787,9.547-21.333,21.333-21.333h21.333C321.12,149.333,330.667,158.88,330.667,170.667L330.667,170.667z"/>
	<path style="fill:#F5B945;" d="M426.667,170.667c0,11.787-9.547,21.333-21.333,21.333H384c-11.787,0-21.333-9.547-21.333-21.333
		l0,0c0-11.787,9.547-21.333,21.333-21.333h21.333C417.12,149.333,426.667,158.88,426.667,170.667L426.667,170.667z"/>
	<path style="fill:#F5B945;" d="M330.667,234.667c0,11.787-9.547,21.333-21.333,21.333H288c-11.787,0-21.333-9.547-21.333-21.333
		l0,0c0-11.787,9.547-21.333,21.333-21.333h21.333C321.12,213.333,330.667,222.88,330.667,234.667L330.667,234.667z"/>
	<path style="fill:#F5B945;" d="M426.667,234.667c0,11.787-9.547,21.333-21.333,21.333H384c-11.787,0-21.333-9.547-21.333-21.333
		l0,0c0-11.787,9.547-21.333,21.333-21.333h21.333C417.12,213.333,426.667,222.88,426.667,234.667L426.667,234.667z"/>
	<path style="fill:#F5B945;" d="M330.667,298.667c0,11.787-9.547,21.333-21.333,21.333H288c-11.787,0-21.333-9.547-21.333-21.333
		l0,0c0-11.787,9.547-21.333,21.333-21.333h21.333C321.12,277.333,330.667,286.88,330.667,298.667L330.667,298.667z"/>
	<path style="fill:#F5B945;" d="M426.667,298.667c0,11.787-9.547,21.333-21.333,21.333H384c-11.787,0-21.333-9.547-21.333-21.333
		l0,0c0-11.787,9.547-21.333,21.333-21.333h21.333C417.12,277.333,426.667,286.88,426.667,298.667L426.667,298.667z"/>
</g>
<circle cx="48" cy="314.667" r="5.333"/>
<circle cx="90.667" cy="186.667" r="5.333"/>
<circle cx="112" cy="186.667" r="5.333"/>
<circle cx="133.333" cy="186.667" r="5.333"/>
<circle cx="90.667" cy="208" r="5.333"/>
<circle cx="133.333" cy="208" r="5.333"/>
<circle cx="133.333" cy="229.333" r="5.333"/>
<circle cx="154.667" cy="208" r="5.333"/>
<circle cx="112" cy="208" r="5.333"/>
<circle cx="90.667" cy="229.333" r="5.333"/>
<circle cx="112" cy="229.333" r="5.333"/>
<circle cx="69.333" cy="314.667" r="5.333"/>
<circle cx="90.667" cy="314.667" r="5.333"/>
<circle cx="112" cy="314.667" r="5.333"/>
<circle cx="133.333" cy="314.667" r="5.333"/>
<circle cx="154.667" cy="314.667" r="5.333"/>
<circle cx="176" cy="314.667" r="5.333"/>
<circle cx="197.333" cy="314.667" r="5.333"/>
<g>
	<rect x="320" y="64" style="fill:#F5B945;" width="42.667" height="42.667"/>
	<rect x="266.667" y="10.667" style="fill:#F5B945;" width="138.667" height="53.333"/>
</g>
<path d="M448,97.963V85.333c0-17.643-14.357-32-32-32V10.667C416,4.768,411.221,0,405.333,0H266.667C260.779,0,256,4.768,256,10.667
	v42.667H53.333c-17.643,0-32,14.357-32,32v12.629C8.949,102.379,0,114.112,0,128v309.333c0,17.643,14.357,32,32,32h405.333
	c17.643,0,32-14.357,32-32V128C469.333,114.112,460.384,102.379,448,97.963z M21.333,341.333V288H224v53.333H21.333z
	 M245.333,277.333v-160H320h42.667h74.667c5.877,0,10.667,4.779,10.667,10.667v213.333H245.333V277.333z M330.667,74.667H352V96
	h-21.333V74.667z M426.667,85.333V96h-53.333V74.667h32H416C421.877,74.667,426.667,79.445,426.667,85.333z M277.333,21.333h117.333
	v32h-32H320h-42.667V21.333z M42.667,85.333c0-5.888,4.789-10.667,10.667-10.667h213.333h42.667V96h-74.667h-192V85.333z
	 M21.333,128c0-5.888,4.789-10.667,10.667-10.667h192v149.333H21.333V128z M448,437.333c0,5.888-4.789,10.667-10.667,10.667H32
	c-5.877,0-10.667-4.779-10.667-10.667v-74.667h213.333H448V437.333z"/>
<circle cx="293.333" cy="37.333" r="5.333"/>
<circle cx="314.667" cy="37.333" r="5.333"/>
<circle cx="336" cy="37.333" r="5.333"/>
<circle cx="357.333" cy="37.333" r="5.333"/>
<circle cx="378.667" cy="37.333" r="5.333"/>
<g>
</g>
<g>
</g>
<g>
</g>
<g>
</g>
<g>
</g>
<g>
</g>
<g>
</g>
<g>
</g>
<g>
</g>
<g>
</g>
<g>
</g>
<g>
</g>
<g>
</g>
<g>
</g>
<g>
</g>
</svg>
